<svg xmlns="http://www.w3.org/2000/svg" width="38" height="35" viewBox="0 0 38 35">
  <g id="Group_17" data-name="Group 17" transform="translate(-18.5 -8)">
    <g id="Group_20" data-name="Group 20" transform="translate(18 8)">
      <text id="Accounts" transform="translate(19.5 33)" fill="#fa4a84" font-size="9" font-family="SegoeUI, Segoe UI"><tspan x="-18.224" y="0">Accounts</tspan></text>
      <path id="Combined_Shape" data-name="Combined Shape" d="M3.488,20A3.493,3.493,0,0,1,0,16.511V3.488A3.493,3.493,0,0,1,3.488,0H20.7a3.492,3.492,0,0,1,3.488,3.488V6.512H17.674a3.488,3.488,0,0,0,0,6.977h6.512v3.023A3.492,3.492,0,0,1,20.7,20Zm20.7-7.906H17.675a2.093,2.093,0,1,1,0-4.186h6.511v4.186ZM16.977,10a.7.7,0,0,0,.7.7h.93a.7.7,0,0,0,0-1.4h-.93A.7.7,0,0,0,16.977,10Z" transform="translate(7)" fill="#fa4a84"/>
    </g>
  </g>
</svg>
