<svg xmlns="http://www.w3.org/2000/svg" xmlns:xlink="http://www.w3.org/1999/xlink" width="101" height="101" viewBox="0 0 101 101">
  <defs>
    <filter id="Rectangle" x="0" y="0" width="101" height="101" filterUnits="userSpaceOnUse">
      <feOffset dy="2" input="SourceAlpha"/>
      <feGaussianBlur stdDeviation="6" result="blur"/>
      <feFlood flood-opacity="0.239"/>
      <feComposite operator="in" in2="blur"/>
      <feComposite in="SourceGraphic"/>
    </filter>
  </defs>
  <g id="Group_8" data-name="Group 8" transform="translate(18 16)">
    <g transform="matrix(1, 0, 0, 1, -18, -16)" filter="url(#Rectangle)">
      <rect id="Rectangle-2" data-name="Rectangle" width="65" height="65" rx="32" transform="translate(18 16)" fill="#fff"/>
    </g>
    <path id="Shape" d="M16.674,32H2.194A2.2,2.2,0,0,1,0,29.807V2.194A2.2,2.2,0,0,1,2.194,0h14.48a2.2,2.2,0,0,1,2.194,2.194V29.807A2.2,2.2,0,0,1,16.674,32Zm-3.123-4.1a.789.789,0,1,0,0,1.578h2.365a.789.789,0,0,0,0-1.578Zm-5.3,0a.789.789,0,1,0,0,1.578h2.363a.789.789,0,1,0,0-1.578Zm-5.3,0a.789.789,0,0,0,0,1.578H5.316a.789.789,0,1,0,0-1.578Zm10.6-3.007a.789.789,0,1,0,0,1.578h2.365a.789.789,0,0,0,0-1.578Zm-5.3,0a.789.789,0,1,0,0,1.578h2.363a.789.789,0,1,0,0-1.578Zm-5.3,0a.789.789,0,0,0,0,1.578H5.316a.789.789,0,1,0,0-1.578Zm10.6-3.007a.789.789,0,1,0,0,1.578h2.365a.789.789,0,0,0,0-1.578Zm-5.3,0a.789.789,0,1,0,0,1.578h2.363a.789.789,0,1,0,0-1.578Zm-5.3,0a.789.789,0,0,0,0,1.578H5.316a.789.789,0,1,0,0-1.578Zm10.6-3.007a.789.789,0,1,0,0,1.579h2.365a.789.789,0,0,0,0-1.579Zm-5.3,0a.789.789,0,1,0,0,1.579h2.363a.789.789,0,1,0,0-1.579Zm-5.3,0a.789.789,0,0,0,0,1.579H5.316a.789.789,0,1,0,0-1.579Zm-.835-16.3V17.057H16.752V2.571Z" transform="translate(23 17)" fill="#bb53f2"/>
  </g>
</svg>
