<svg id="Group_17_Copy_2" data-name="Group 17 Copy 2" xmlns="http://www.w3.org/2000/svg" width="75" height="49" viewBox="0 0 75 49">
  <rect id="Rectangle" width="75" height="49" fill="none"/>
  <text id="Pay" transform="translate(38 41)" fill="#9ca0a5" font-size="9" font-family="SegoeUI, Segoe UI"><tspan x="-6.833" y="0">Pay</tspan></text>
  <path id="Combined_Shape" data-name="Combined Shape" d="M3.332,19.714A5,5,0,0,1,0,15V8.52A8.648,8.648,0,0,1,2.165,2.79,8.163,8.163,0,0,1,7.577.033C7.828.011,8.083,0,8.333,0A8.335,8.335,0,0,1,9.757,16.547l0,0,0,0a5.018,5.018,0,0,1-3.084,3.164A4.957,4.957,0,0,1,5,20,4.907,4.907,0,0,1,3.332,19.714Zm0-11.378v6.739a1.6,1.6,0,0,0,1.594,1.593,1.741,1.741,0,0,0,1.739-1.739,1.665,1.665,0,0,1,1.651-1.593,9.8,9.8,0,0,0,1.336-.177A5,5,0,0,0,8.538,3.34c-.068,0-.138,0-.205,0A5.007,5.007,0,0,0,3.332,8.336Zm3.333,1.672V8.339a1.668,1.668,0,1,1,1.668,1.669Z" transform="translate(29 8)" fill="#9ca0a5"/>
</svg>
